<svg xmlns="http://www.w3.org/2000/svg" xmlns:xlink="http://www.w3.org/1999/xlink" width="2000" zoomAndPan="magnify" viewBox="0 0 1500 487.499991" height="650" preserveAspectRatio="xMidYMid meet" version="1.0"><defs><g/><clipPath id="135f5e2c7e"><rect x="0" width="940" y="0" height="487"/></clipPath><clipPath id="a1b916c896"><path d="M 0.769531 0 L 541.714844 0 L 541.714844 486 L 0.769531 486 Z M 0.769531 0 " clip-rule="nonzero"/></clipPath><clipPath id="6527635fff"><path d="M 239 83.632812 L 303 83.632812 L 303 144 L 239 144 Z M 239 83.632812 " clip-rule="nonzero"/></clipPath><clipPath id="04e22df357"><path d="M 154.398438 122 L 195 122 L 195 160.800781 L 154.398438 160.800781 Z M 154.398438 122 " clip-rule="nonzero"/></clipPath><clipPath id="8a50d8b21e"><path d="M 348 120 L 388.160156 120 L 388.160156 160 L 348 160 Z M 348 120 " clip-rule="nonzero"/></clipPath><clipPath id="65473a94ec"><rect x="0" width="233" y="0" height="195"/></clipPath></defs><g transform="matrix(1, 0, 0, 1, 556, 0)"><g clip-path="url(#135f5e2c7e)"><g fill="#16163f" fill-opacity="1"><g transform="translate(1.504569, 425.830024)"><g><path d="M 398.21875 -120.265625 L 408 -114.515625 L 298.671875 46.609375 L 286.578125 39.125 L 326.859375 -20.71875 C 314.585938 -12.28125 300.488281 -5.757812 284.5625 -1.15625 C 268.644531 3.445312 250.710938 5.75 230.765625 5.75 C 200.066406 5.75 172.15625 0.285156 147.03125 -10.640625 C 121.90625 -21.578125 100.328125 -36.632812 82.296875 -55.8125 C 64.265625 -75 50.351562 -97.15625 40.5625 -122.28125 C 30.78125 -147.414062 25.890625 -174.175781 25.890625 -202.5625 C 25.890625 -232.101562 31.359375 -259.4375 42.296875 -284.5625 C 53.234375 -309.695312 68.003906 -331.566406 86.609375 -350.171875 C 105.210938 -368.773438 126.503906 -383.160156 150.484375 -393.328125 C 174.460938 -403.492188 199.6875 -408.578125 226.15625 -408.578125 C 256.851562 -408.578125 282.269531 -404.453125 302.40625 -396.203125 C 322.550781 -387.960938 340.488281 -376.742188 356.21875 -362.546875 L 387.859375 -409.15625 L 399.375 -402.25 L 294.0625 -247.453125 L 286.578125 -252.0625 L 319.390625 -308.453125 C 329.359375 -325.328125 331.5625 -340.191406 326 -353.046875 C 320.4375 -365.898438 309.210938 -375.972656 292.328125 -383.265625 C 275.453125 -390.554688 254.738281 -394.203125 230.1875 -394.203125 C 199.113281 -394.203125 170.914062 -386.71875 145.59375 -371.75 C 120.269531 -356.789062 100.03125 -335.976562 84.875 -309.3125 C 69.726562 -282.644531 62.15625 -251.664062 62.15625 -216.375 C 62.15625 -188.363281 66.085938 -161.984375 73.953125 -137.234375 C 81.816406 -112.492188 93.132812 -90.628906 107.90625 -71.640625 C 122.675781 -52.648438 140.414062 -37.878906 161.125 -27.328125 C 181.84375 -16.785156 205.054688 -11.515625 230.765625 -11.515625 C 250.328125 -11.515625 269.023438 -14.101562 286.859375 -19.28125 C 304.703125 -24.457031 322.734375 -34.910156 340.953125 -50.640625 C 359.179688 -66.367188 378.269531 -89.578125 398.21875 -120.265625 Z M 398.21875 -120.265625 "/></g></g></g><g fill="#16163f" fill-opacity="1"><g transform="translate(418.143998, 425.830024)"><g><path d="M 175.515625 0 L 14.390625 0 L 14.390625 -11.515625 L 47.1875 -11.515625 C 67.519531 -11.515625 77.6875 -21.679688 77.6875 -42.015625 L 77.6875 -360.8125 C 77.6875 -381.144531 67.519531 -391.3125 47.1875 -391.3125 L 14.390625 -391.3125 L 14.390625 -402.828125 L 175.515625 -402.828125 L 175.515625 -391.3125 L 117.96875 -391.3125 C 114.132812 -391.3125 112.21875 -389.394531 112.21875 -385.5625 L 112.21875 -17.265625 C 112.21875 -13.429688 114.132812 -11.515625 117.96875 -11.515625 L 175.515625 -11.515625 Z M 175.515625 0 "/></g></g></g><g fill="#16163f" fill-opacity="1"><g transform="translate(608.048713, 425.830024)"><g><path d="M 298.671875 -402.828125 L 305.578125 -419.515625 L 316.515625 -415.484375 L 272.203125 -300.96875 L 264.140625 -303.84375 C 273.347656 -327.25 278.332031 -344.800781 279.09375 -356.5 C 279.863281 -368.207031 277.273438 -375.976562 271.328125 -379.8125 C 265.378906 -383.644531 256.65625 -385.5625 245.15625 -385.5625 L 119.125 -385.5625 C 110.6875 -385.5625 106.46875 -381.34375 106.46875 -372.90625 L 106.46875 -218.671875 L 184.71875 -218.671875 C 196.613281 -218.671875 206.015625 -219.535156 212.921875 -221.265625 C 219.828125 -222.992188 225.960938 -227.117188 231.328125 -233.640625 C 236.703125 -240.160156 242.648438 -250.710938 249.171875 -265.296875 L 257.234375 -262.40625 L 203.71875 -123.15625 L 195.65625 -126.03125 C 203.332031 -146.75 207.265625 -162.476562 207.453125 -173.21875 C 207.648438 -183.957031 204.96875 -191.34375 199.40625 -195.375 C 193.84375 -199.40625 186.070312 -201.421875 176.09375 -201.421875 L 106.46875 -201.421875 L 106.46875 -17.265625 C 106.46875 -13.429688 108.382812 -11.515625 112.21875 -11.515625 L 169.765625 -11.515625 L 169.765625 0 L 8.625 0 L 8.625 -11.515625 L 41.4375 -11.515625 C 61.769531 -11.515625 71.9375 -21.679688 71.9375 -42.015625 L 71.9375 -360.8125 C 71.9375 -381.144531 61.769531 -391.3125 41.4375 -391.3125 L 8.625 -391.3125 L 8.625 -402.828125 Z M 298.671875 -402.828125 "/></g></g></g></g></g><g clip-path="url(#a1b916c896)"><path fill="#182b5c" d="M 484.347656 315.355469 C 479.265625 327.359375 473.320312 338.929688 466.617188 350.066406 C 470.832031 345.417969 479.484375 336.226562 490.1875 330.277344 C 505.003906 322.058594 519.167969 324.007812 519.167969 324.113281 C 519.277344 324.113281 509.003906 343.039062 493.214844 350.714844 C 479.484375 357.527344 467.371094 353.960938 464.667969 353.09375 C 457.75 364.234375 449.960938 374.9375 441.636719 385.101562 C 446.503906 381.210938 456.449219 373.425781 467.804688 369.207031 C 483.699219 363.367188 497.324219 367.585938 497.324219 367.585938 C 497.433594 367.585938 484.457031 384.671875 467.695312 389.863281 C 453.097656 394.402344 441.746094 389.105469 439.148438 387.808594 C 430.714844 397.648438 421.632812 406.945312 411.898438 415.597656 C 417.304688 412.460938 428.226562 406.191406 440.230469 403.8125 C 456.773438 400.457031 469.644531 406.621094 469.644531 406.730469 C 469.75 406.730469 454.394531 421.652344 437.09375 424.25 C 421.957031 426.628906 411.574219 419.597656 409.195312 417.976562 C 398.707031 427.058594 387.460938 435.386719 375.566406 442.957031 C 381.40625 440.683594 393.300781 436.25 405.519531 435.820312 C 422.386719 435.171875 434.066406 443.28125 434.066406 443.386719 C 434.175781 443.386719 416.65625 455.714844 399.03125 455.5 C 383.675781 455.390625 374.484375 446.847656 372.429688 444.902344 C 361.292969 451.714844 349.613281 457.878906 337.5 463.070312 C 343.664062 461.664062 356.210938 459.175781 368.429688 460.472656 C 385.296875 462.3125 395.679688 472.152344 395.570312 472.261719 C 395.679688 472.367188 376.324219 481.882812 358.914062 479.074219 C 343.664062 476.695312 335.878906 466.746094 334.148438 464.582031 C 318.363281 471.179688 301.710938 476.371094 284.515625 480.046875 C 299.980469 481.777344 315.984375 482.207031 332.203125 481.234375 C 333.933594 481.128906 335.339844 481.992188 335.449219 483.183594 C 335.554688 484.371094 334.257812 485.453125 332.527344 485.453125 C 311.441406 486.75 291.003906 485.667969 271.214844 482.425781 C 251.425781 485.5625 230.878906 486.640625 209.902344 485.453125 C 208.171875 485.34375 206.875 484.261719 206.984375 483.183594 C 207.089844 481.992188 208.496094 481.128906 210.226562 481.234375 C 226.445312 482.207031 242.449219 481.777344 257.914062 480.046875 C 240.722656 476.476562 224.175781 471.289062 208.28125 464.582031 C 206.550781 466.855469 198.765625 476.695312 183.515625 479.074219 C 166 481.882812 146.644531 472.367188 146.859375 472.261719 C 146.859375 472.152344 157.132812 462.3125 174 460.472656 C 186.113281 459.175781 198.65625 461.664062 204.929688 463.070312 C 192.816406 457.769531 181.136719 451.714844 170 444.902344 C 167.945312 446.847656 158.753906 455.390625 143.398438 455.5 C 125.773438 455.714844 108.253906 443.386719 108.363281 443.386719 C 108.363281 443.28125 120.042969 435.171875 136.910156 435.820312 C 149.128906 436.25 160.917969 440.683594 166.863281 442.957031 C 155.078125 435.496094 143.832031 427.167969 133.234375 417.976562 C 130.855469 419.597656 120.472656 426.519531 105.335938 424.25 C 88.035156 421.652344 72.679688 406.730469 72.785156 406.730469 C 72.785156 406.621094 85.65625 400.457031 102.199219 403.8125 C 114.09375 406.191406 125.125 412.355469 130.53125 415.597656 C 120.796875 406.945312 111.714844 397.753906 103.28125 387.808594 C 100.6875 388.996094 89.332031 394.402344 74.734375 389.863281 C 57.972656 384.671875 44.996094 367.585938 45.105469 367.585938 C 45.105469 367.476562 58.730469 363.367188 74.625 369.207031 C 86.085938 373.425781 96.035156 381.101562 100.792969 385.101562 C 92.359375 375.046875 84.679688 364.339844 77.761719 353.09375 C 75.058594 353.960938 62.945312 357.421875 49.214844 350.714844 C 33.425781 343.039062 23.152344 324.007812 23.261719 324.113281 C 23.261719 324.007812 37.425781 322.058594 52.242188 330.277344 C 62.945312 336.226562 71.597656 345.417969 75.816406 350.066406 C 69.109375 338.929688 63.164062 327.359375 58.082031 315.355469 C 55.269531 315.789062 42.832031 317.410156 30.179688 308.542969 C 15.691406 298.488281 8.445312 277.941406 8.554688 277.941406 C 8.554688 277.832031 22.828125 278.15625 36.34375 288.648438 C 46.078125 296.214844 53.214844 306.707031 56.675781 312.003906 C 51.375 299.027344 46.941406 285.617188 43.589844 271.886719 C 40.777344 271.777344 28.125 271.34375 17.207031 260.421875 C 4.445312 247.878906 0.769531 225.929688 0.875 225.929688 C 0.984375 225.820312 14.933594 228.632812 26.503906 241.390625 C 34.832031 250.691406 40.238281 262.371094 42.726562 268.210938 C 39.804688 255.339844 37.75 242.148438 36.667969 228.738281 C 33.859375 228.199219 21.53125 225.820312 12.339844 212.953125 C 1.742188 198.246094 1.632812 175.429688 1.851562 175.429688 C 1.957031 175.320312 15.257812 180.402344 24.558594 195.324219 C 31.261719 206.03125 34.722656 218.683594 36.34375 224.953125 C 35.914062 218.46875 35.695312 211.871094 35.695312 205.382812 C 33.210938 199.328125 29.640625 187.433594 31.261719 173.699219 C 33.640625 153.152344 46.292969 138.664062 46.292969 138.769531 C 46.292969 138.878906 50.292969 156.722656 48.238281 175.644531 C 46.726562 188.40625 42.617188 199.433594 40.023438 205.492188 C 40.023438 211.980469 40.238281 218.46875 40.5625 224.847656 C 41.210938 218.574219 43.914062 205.707031 51.59375 196.515625 C 62.1875 183.753906 76.679688 183 76.679688 182.890625 C 76.570312 183 73.003906 199.328125 63.488281 211.980469 C 55.050781 222.792969 43.699219 227.441406 40.886719 228.414062 C 41.96875 241.609375 43.914062 254.585938 46.835938 267.34375 C 46.507812 261.179688 47.265625 248.3125 53.320312 238.253906 C 61.757812 224.304688 76.03125 221.386719 75.921875 221.277344 C 75.8125 221.386719 74.949219 237.605469 67.488281 251.230469 C 60.890625 263.234375 50.292969 269.613281 47.699219 270.914062 C 50.941406 284.429688 55.269531 297.621094 60.566406 310.382812 C 59.269531 304.328125 57.863281 291.78125 62.296875 280.96875 C 68.351562 266.046875 81.871094 260.855469 81.871094 260.746094 C 81.761719 260.855469 83.601562 276.75 78.410156 291.242188 C 73.761719 304 64.351562 312.003906 62.082031 313.625 C 67.164062 325.414062 73.003906 336.875 79.597656 347.796875 C 77.4375 342.066406 74.191406 329.847656 76.894531 318.707031 C 80.679688 303.136719 93.222656 296 93.117188 295.890625 C 93.117188 296 97.226562 311.246094 94.199219 326.277344 C 91.492188 339.578125 83.492188 348.769531 81.4375 350.824219 C 88.25 361.855469 95.820312 372.34375 104.144531 382.292969 C 101.117188 376.992188 96.144531 365.421875 97.117188 353.960938 C 98.523438 338.066406 109.769531 329.089844 109.769531 328.980469 C 109.769531 329.089844 116.148438 343.472656 115.5 358.71875 C 114.851562 372.234375 108.363281 382.617188 106.523438 384.996094 C 114.851562 394.726562 123.828125 403.8125 133.34375 412.351562 C 129.558594 407.488281 122.851562 396.890625 122.097656 385.429688 C 121.121094 369.53125 130.855469 358.828125 130.855469 358.828125 C 130.855469 358.933594 139.289062 372.128906 140.910156 387.480469 C 142.316406 401 137.453125 412.246094 136.046875 414.839844 C 146.425781 423.816406 157.457031 432.035156 169.136719 439.386719 C 164.59375 435.171875 156.160156 425.761719 153.5625 414.515625 C 149.996094 398.945312 157.996094 386.832031 157.890625 386.832031 C 157.890625 386.941406 168.378906 398.726562 172.488281 413.542969 C 176.164062 426.628906 173.136719 438.628906 172.164062 441.332031 C 183.085938 448.039062 194.65625 454.09375 206.550781 459.285156 C 201.359375 455.824219 191.519531 447.714844 187.195312 436.898438 C 181.246094 421.976562 187.300781 408.785156 187.195312 408.785156 C 187.195312 408.894531 199.414062 418.949219 205.902344 433.007812 C 211.632812 445.441406 210.441406 457.769531 210.011719 460.582031 C 229.367188 468.691406 249.914062 474.640625 271.324219 478.101562 C 292.734375 474.640625 313.28125 468.691406 332.636719 460.582031 C 332.09375 457.664062 331.011719 445.441406 336.746094 433.007812 C 343.234375 418.949219 355.453125 408.894531 355.453125 408.785156 C 355.34375 408.785156 361.398438 421.976562 355.453125 436.898438 C 351.125 447.714844 341.285156 455.824219 336.097656 459.285156 C 347.992188 454.09375 359.5625 448.144531 370.484375 441.332031 C 369.511719 438.523438 366.589844 426.628906 370.160156 413.542969 C 374.375 398.726562 384.757812 386.941406 384.757812 386.832031 C 384.648438 386.832031 392.652344 398.945312 389.082031 414.515625 C 386.488281 425.761719 378.050781 435.277344 373.511719 439.386719 C 385.1875 432.035156 396.21875 423.816406 406.601562 414.839844 C 405.195312 412.246094 400.328125 401 401.734375 387.480469 C 403.464844 372.234375 411.789062 358.933594 411.789062 358.828125 C 411.683594 358.828125 421.523438 369.53125 420.550781 385.429688 C 419.792969 396.890625 413.089844 407.59375 409.304688 412.351562 C 418.820312 403.8125 427.792969 394.726562 436.121094 384.996094 C 434.390625 382.617188 427.792969 372.234375 427.144531 358.71875 C 426.496094 343.363281 432.878906 328.980469 432.878906 328.980469 C 432.769531 328.980469 444.125 338.066406 445.527344 353.960938 C 446.503906 365.421875 441.527344 376.992188 438.5 382.292969 C 446.828125 372.34375 454.394531 361.855469 461.207031 350.824219 C 459.152344 348.769531 451.042969 339.578125 448.449219 326.277344 C 445.527344 311.246094 449.636719 296 449.53125 295.890625 C 449.421875 295.890625 461.964844 303.136719 465.75 318.707031 C 468.453125 329.953125 465.210938 342.066406 463.046875 347.796875 C 469.644531 336.875 475.480469 325.414062 480.566406 313.625 C 478.1875 311.894531 468.777344 304 464.238281 291.242188 C 459.046875 276.75 460.777344 260.855469 460.777344 260.746094 C 460.667969 260.746094 474.183594 266.046875 480.347656 280.96875 C 484.78125 291.675781 483.375 304.328125 482.078125 310.382812 C 487.378906 297.621094 491.59375 284.429688 494.945312 270.914062 C 492.351562 269.613281 481.753906 263.234375 475.15625 251.230469 C 467.695312 237.605469 466.832031 221.277344 466.722656 221.277344 C 466.617188 221.386719 480.890625 224.304688 489.324219 238.253906 C 495.378906 248.3125 496.136719 261.179688 495.8125 267.34375 C 498.730469 254.691406 500.785156 241.609375 501.757812 228.414062 C 498.949219 227.550781 487.59375 222.792969 479.160156 211.761719 C 469.644531 199.21875 466.074219 182.78125 465.964844 182.675781 C 465.859375 182.78125 480.457031 183.539062 491.054688 196.300781 C 498.730469 205.492188 501.433594 218.359375 502.082031 224.628906 C 502.515625 218.25 502.734375 211.761719 502.625 205.273438 C 500.027344 199.21875 495.921875 188.296875 494.40625 175.429688 C 492.242188 156.613281 496.351562 138.664062 496.351562 138.554688 C 496.246094 138.445312 509.003906 152.9375 511.382812 173.484375 C 513.003906 187.214844 509.4375 199.21875 506.949219 205.167969 C 506.949219 211.761719 506.734375 218.25 506.300781 224.738281 C 507.921875 218.46875 511.382812 205.816406 518.085938 195.109375 C 527.386719 180.296875 540.6875 175.210938 540.796875 175.210938 C 540.902344 175.105469 540.796875 198.03125 530.308594 212.734375 C 521.222656 225.605469 508.789062 227.984375 505.976562 228.523438 C 504.894531 241.933594 502.839844 255.125 499.921875 267.992188 C 502.515625 262.152344 507.921875 250.476562 516.140625 241.175781 C 527.605469 228.308594 541.660156 225.605469 541.769531 225.710938 C 541.878906 225.710938 538.199219 247.554688 525.441406 260.097656 C 514.410156 271.128906 501.867188 271.453125 499.054688 271.5625 C 495.703125 285.292969 491.378906 298.703125 485.972656 311.679688 C 489.433594 306.488281 496.675781 295.890625 506.300781 288.324219 C 519.710938 277.832031 533.984375 277.507812 534.089844 277.617188 C 534.199219 277.617188 526.953125 298.164062 512.464844 308.21875 C 499.703125 317.410156 487.160156 315.789062 484.347656 315.355469 Z M 107.171875 234.253906 C 107.171875 169.265625 106.632812 104.277344 106.847656 39.394531 C 106.847656 41.882812 138.855469 46.964844 142.210938 47.503906 C 153.671875 49.234375 165.242188 50.101562 176.921875 49.882812 C 199.304688 49.558594 222.230469 43.179688 240.613281 29.878906 C 244.179688 27.285156 275.109375 4.898438 270.890625 0.25 C 282.351562 13.011719 290.789062 24.257812 306.46875 32.582031 C 333.175781 46.75 364.75 49.777344 394.382812 46.640625 C 394.488281 46.640625 394.707031 46.640625 394.8125 46.640625 C 399.570312 46.097656 436.230469 42.097656 436.230469 39.070312 C 436.230469 41.664062 436.230469 250.042969 436.230469 250.042969 C 433.527344 268.640625 423.46875 287.996094 409.519531 307.679688 C 396.109375 326.492188 377.402344 346.175781 354.371094 365.964844 C 321.605469 394.292969 290.679688 413.328125 289.382812 414.191406 L 271.105469 425.4375 L 252.832031 414.191406 C 251.535156 413.433594 220.714844 394.292969 187.949219 366.070312 C 165.027344 346.28125 146.75 326.710938 133.34375 307.894531 C 119.285156 288.214844 109.984375 268.75 107.28125 250.042969 C 107.171875 244.742188 107.171875 239.554688 107.171875 234.253906 Z M 127.9375 243.988281 L 127.9375 245.175781 C 133.773438 276.96875 158.539062 312.003906 201.898438 349.527344 C 233.367188 376.667969 262.78125 394.835938 263.96875 395.59375 L 270.890625 399.808594 L 277.8125 395.59375 C 279 394.835938 308.628906 376.667969 340.097656 349.527344 C 383.566406 312.003906 408.871094 276.859375 414.601562 245.066406 L 415.359375 243.878906 L 415.359375 65.5625 C 375.671875 73.132812 332.742188 71.292969 297.277344 52.910156 C 294.679688 51.507812 269.808594 35.175781 270.675781 33.554688 C 243.964844 56.804688 212.820312 67.511719 177.460938 69.566406 C 172.8125 69.890625 127.828125 71.726562 127.828125 65.78125 C 127.9375 67.078125 127.9375 243.988281 127.9375 243.988281 Z M 271.648438 384.347656 C 271.648438 384.347656 389.296875 311.894531 401.84375 242.6875 L 401.84375 81.566406 C 387.460938 84.378906 364.320312 83.945312 339.554688 79.621094 C 306.898438 73.78125 280.082031 62.96875 271 52.804688 C 261.914062 62.96875 235.421875 73.78125 202.765625 79.511719 C 178.21875 83.839844 156.808594 84.378906 141.453125 81.566406 L 141.453125 242.6875 C 154.105469 312.003906 271.648438 384.347656 271.648438 384.347656 Z M 271.648438 384.347656 " fill-opacity="1" fill-rule="nonzero"/></g><g clip-path="url(#6527635fff)"><path fill="#ffffff" d="M 280.839844 103.554688 L 302.601562 107.007812 L 286.621094 122.167969 L 290.066406 143.929688 L 270.707031 133.425781 L 251.078125 143.425781 L 255.089844 121.765625 L 239.515625 106.191406 L 261.351562 103.304688 L 271.351562 83.6875 Z M 280.839844 103.554688 " fill-opacity="1" fill-rule="nonzero"/><path fill="#ffffff" d="M 290.097656 143.972656 L 290.054688 143.949219 L 270.707031 133.457031 L 251.058594 143.46875 L 255.058594 121.773438 L 239.472656 106.167969 L 239.515625 106.15625 L 261.34375 103.273438 L 271.351562 83.632812 L 271.375 83.675781 L 280.863281 103.546875 L 302.644531 107 L 302.613281 107.03125 L 286.65625 122.191406 Z M 270.707031 133.402344 L 290.042969 143.886719 L 286.609375 122.167969 L 286.621094 122.15625 L 302.546875 107.019531 L 280.828125 103.578125 L 271.351562 83.730469 L 261.363281 103.328125 L 261.351562 103.328125 L 239.558594 106.199219 L 255.113281 121.753906 L 255.113281 121.765625 L 251.113281 143.382812 Z M 270.707031 133.402344 " fill-opacity="1" fill-rule="nonzero"/></g><path fill="#ffffff" d="M 226.457031 119.65625 L 243.777344 122.398438 L 231.058594 134.484375 L 233.800781 151.820312 L 218.378906 143.460938 L 202.738281 151.414062 L 205.929688 134.160156 L 193.523438 121.753906 L 210.925781 119.457031 L 218.890625 103.820312 Z M 226.457031 119.65625 " fill-opacity="1" fill-rule="nonzero"/><path fill="#ffffff" d="M 233.832031 151.863281 L 233.789062 151.84375 L 218.378906 143.480469 L 202.714844 151.460938 L 205.90625 134.167969 L 193.46875 121.730469 L 193.515625 121.722656 L 210.902344 119.425781 L 218.890625 103.765625 L 218.914062 103.808594 L 226.464844 119.632812 L 243.832031 122.386719 L 243.800781 122.421875 L 231.078125 134.496094 Z M 218.378906 143.425781 L 233.777344 151.777344 L 231.046875 134.476562 L 231.058594 134.464844 L 243.746094 122.410156 L 226.445312 119.664062 L 218.890625 103.863281 L 210.9375 119.46875 L 210.925781 119.46875 L 193.570312 121.765625 L 205.953125 134.148438 L 205.953125 134.160156 L 202.769531 151.371094 Z M 218.378906 143.425781 " fill-opacity="1" fill-rule="nonzero"/><path fill="#ffffff" d="M 332.503906 119.65625 L 349.835938 122.398438 L 337.117188 134.484375 L 339.847656 151.820312 L 324.425781 143.460938 L 308.785156 151.414062 L 311.976562 134.160156 L 299.574219 121.753906 L 316.972656 119.457031 L 324.941406 103.820312 Z M 332.503906 119.65625 " fill-opacity="1" fill-rule="nonzero"/><path fill="#ffffff" d="M 339.878906 151.863281 L 339.835938 151.84375 L 324.425781 143.480469 L 308.765625 151.460938 L 308.777344 151.414062 L 311.96875 134.167969 L 299.539062 121.730469 L 316.972656 119.425781 L 324.960938 103.765625 L 324.984375 103.808594 L 332.535156 119.632812 L 349.902344 122.386719 L 349.871094 122.421875 L 337.160156 134.496094 Z M 324.425781 143.425781 L 339.824219 151.777344 L 337.09375 134.476562 L 337.105469 134.464844 L 349.792969 122.410156 L 332.492188 119.675781 L 324.941406 103.871094 L 316.984375 119.480469 L 316.972656 119.480469 L 299.617188 121.773438 L 312 134.160156 L 312 134.167969 L 308.820312 151.382812 Z M 324.425781 143.425781 " fill-opacity="1" fill-rule="nonzero"/><g clip-path="url(#04e22df357)"><path fill="#ffffff" d="M 180.695312 134.859375 L 194.488281 137.054688 L 184.367188 146.660156 L 186.542969 160.453125 L 174.265625 153.796875 L 161.828125 160.136719 L 164.367188 146.410156 L 154.496094 136.53125 L 168.34375 134.703125 L 174.683594 122.265625 Z M 180.695312 134.859375 " fill-opacity="1" fill-rule="nonzero"/><path fill="#ffffff" d="M 186.574219 160.5 L 186.53125 160.476562 L 174.265625 153.820312 L 161.796875 160.171875 L 164.34375 146.410156 L 154.453125 136.519531 L 168.320312 134.683594 L 174.683594 122.210938 L 180.714844 134.847656 L 194.542969 137.042969 L 194.507812 137.078125 L 184.398438 146.683594 Z M 174.277344 153.777344 L 186.519531 160.421875 L 184.34375 146.660156 L 184.355469 146.652344 L 194.441406 137.066406 L 180.683594 134.878906 L 174.683594 122.3125 L 168.355469 134.714844 L 168.34375 134.714844 L 154.550781 136.550781 L 164.398438 146.398438 L 161.863281 160.09375 Z M 174.277344 153.777344 " fill-opacity="1" fill-rule="nonzero"/></g><g clip-path="url(#8a50d8b21e)"><path fill="#ffffff" d="M 374.339844 133.578125 L 388.132812 135.765625 L 378.011719 145.382812 L 380.199219 159.175781 L 367.925781 152.519531 L 355.476562 158.859375 L 358.023438 145.121094 L 348.144531 135.25 L 361.992188 133.425781 L 368.328125 120.988281 Z M 374.339844 133.578125 " fill-opacity="1" fill-rule="nonzero"/><path fill="#ffffff" d="M 380.222656 159.21875 L 380.175781 159.199219 L 367.914062 152.542969 L 355.445312 158.890625 L 355.457031 158.847656 L 357.992188 145.132812 L 348.101562 135.230469 L 361.96875 133.394531 L 368.328125 120.921875 L 374.363281 133.558594 L 388.1875 135.753906 L 388.15625 135.785156 L 378.046875 145.394531 Z M 367.925781 152.496094 L 380.167969 159.144531 L 377.992188 145.382812 L 378.003906 145.371094 L 388.089844 135.785156 L 374.332031 133.601562 L 368.328125 121.03125 L 362 133.4375 L 361.992188 133.4375 L 348.199219 135.261719 L 358.046875 145.109375 L 358.046875 145.121094 L 355.511719 158.804688 Z M 367.925781 152.496094 " fill-opacity="1" fill-rule="nonzero"/></g><g transform="matrix(1, 0, 0, 1, 155, 142)"><g clip-path="url(#65473a94ec)"><g fill="#ffffff" fill-opacity="1"><g transform="translate(0.537674, 147.174376)"><g><path d="M 98.375 -29.703125 L 100.78125 -28.296875 L 73.78125 11.515625 L 70.796875 9.671875 L 80.75 -5.125 C 77.71875 -3.03125 74.234375 -1.414062 70.296875 -0.28125 C 66.359375 0.851562 61.925781 1.421875 57 1.421875 C 49.414062 1.421875 42.519531 0.0703125 36.3125 -2.625 C 30.113281 -5.332031 24.785156 -9.050781 20.328125 -13.78125 C 15.867188 -18.519531 12.429688 -23.992188 10.015625 -30.203125 C 7.597656 -36.410156 6.390625 -43.019531 6.390625 -50.03125 C 6.390625 -57.332031 7.738281 -64.085938 10.4375 -70.296875 C 13.144531 -76.503906 16.796875 -81.90625 21.390625 -86.5 C 25.992188 -91.09375 31.253906 -94.644531 37.171875 -97.15625 C 43.097656 -99.675781 49.332031 -100.9375 55.875 -100.9375 C 63.445312 -100.9375 69.722656 -99.914062 74.703125 -97.875 C 79.679688 -95.832031 84.113281 -93.0625 88 -89.5625 L 95.8125 -101.078125 L 98.65625 -99.375 L 72.640625 -61.125 L 70.796875 -62.265625 L 78.890625 -76.203125 C 81.359375 -80.367188 81.90625 -84.035156 80.53125 -87.203125 C 79.15625 -90.378906 76.378906 -92.867188 72.203125 -94.671875 C 68.035156 -96.472656 62.921875 -97.375 56.859375 -97.375 C 49.179688 -97.375 42.210938 -95.523438 35.953125 -91.828125 C 29.703125 -88.128906 24.707031 -82.988281 20.96875 -76.40625 C 17.226562 -69.820312 15.359375 -62.171875 15.359375 -53.453125 C 15.359375 -46.535156 16.328125 -40.019531 18.265625 -33.90625 C 20.210938 -27.789062 23.007812 -22.382812 26.65625 -17.6875 C 30.300781 -13 34.679688 -9.351562 39.796875 -6.75 C 44.921875 -4.144531 50.65625 -2.84375 57 -2.84375 C 61.832031 -2.84375 66.453125 -3.484375 70.859375 -4.765625 C 75.265625 -6.046875 79.71875 -8.628906 84.21875 -12.515625 C 88.726562 -16.398438 93.445312 -22.128906 98.375 -29.703125 Z M 98.375 -29.703125 "/></g></g></g><g fill="#ffffff" fill-opacity="1"><g transform="translate(103.456873, 147.174376)"><g><path d="M 43.359375 0 L 3.546875 0 L 3.546875 -2.84375 L 11.65625 -2.84375 C 16.675781 -2.84375 19.1875 -5.351562 19.1875 -10.375 L 19.1875 -89.125 C 19.1875 -94.15625 16.675781 -96.671875 11.65625 -96.671875 L 3.546875 -96.671875 L 3.546875 -99.515625 L 43.359375 -99.515625 L 43.359375 -96.671875 L 29.140625 -96.671875 C 28.191406 -96.671875 27.71875 -96.195312 27.71875 -95.25 L 27.71875 -4.265625 C 27.71875 -3.316406 28.191406 -2.84375 29.140625 -2.84375 L 43.359375 -2.84375 Z M 43.359375 0 "/></g></g></g><g fill="#ffffff" fill-opacity="1"><g transform="translate(150.367558, 147.174376)"><g><path d="M 73.78125 -99.515625 L 75.484375 -103.625 L 78.1875 -102.640625 L 67.234375 -74.34375 L 65.25 -75.0625 C 67.519531 -80.84375 68.75 -85.175781 68.9375 -88.0625 C 69.132812 -90.957031 68.5 -92.878906 67.03125 -93.828125 C 65.5625 -94.773438 63.40625 -95.25 60.5625 -95.25 L 29.421875 -95.25 C 27.335938 -95.25 26.296875 -94.207031 26.296875 -92.125 L 26.296875 -54.015625 L 45.625 -54.015625 C 48.5625 -54.015625 50.882812 -54.226562 52.59375 -54.65625 C 54.300781 -55.082031 55.816406 -56.097656 57.140625 -57.703125 C 58.472656 -59.316406 59.941406 -61.925781 61.546875 -65.53125 L 63.546875 -64.828125 L 50.328125 -30.421875 L 48.328125 -31.125 C 50.222656 -36.25 51.191406 -40.132812 51.234375 -42.78125 C 51.285156 -45.4375 50.625 -47.257812 49.25 -48.25 C 47.882812 -49.25 45.96875 -49.75 43.5 -49.75 L 26.296875 -49.75 L 26.296875 -4.265625 C 26.296875 -3.316406 26.769531 -2.84375 27.71875 -2.84375 L 41.9375 -2.84375 L 41.9375 0 L 2.125 0 L 2.125 -2.84375 L 10.234375 -2.84375 C 15.253906 -2.84375 17.765625 -5.351562 17.765625 -10.375 L 17.765625 -89.125 C 17.765625 -94.15625 15.253906 -96.671875 10.234375 -96.671875 L 2.125 -96.671875 L 2.125 -99.515625 Z M 73.78125 -99.515625 "/></g></g></g></g></g></svg>